<svg width="65" height="24" viewBox="0 0 65 24" fill="none" xmlns="http://www.w3.org/2000/svg">
<path fill-rule="evenodd" clip-rule="evenodd" d="M3.53909 23.3631C3.75259 23.4544 3.93559 23.5 4.08809 23.5C4.49984 23.5 4.79722 23.2642 4.98022 22.7927L11.98 7.09425C12.285 6.42493 12.0943 5.94577 11.4081 5.65675C10.7523 5.38294 10.272 5.56547 9.96696 6.20437L6.2906 14.4884L2.09796 6.18155C1.96071 5.89252 1.76247 5.69858 1.50322 5.5997C1.24396 5.50083 0.969467 5.51224 0.679716 5.63393C0.389964 5.75562 0.187903 5.94957 0.0735278 6.21577C-0.0408478 6.48198 -0.0217868 6.75959 0.130714 7.04861L5.27042 16.7872L2.99009 21.9256C2.68509 22.5797 2.86809 23.0589 3.53909 23.3631ZM29.5137 17.6245C30.421 17.9516 31.4085 18.1151 32.476 18.1151C33.5587 18.1151 34.4623 17.9478 35.1867 17.6131C35.911 17.2784 36.46 16.8297 36.8337 16.2669C37.2073 15.704 37.3941 15.0728 37.3941 14.373C37.3941 13.7645 37.2492 13.2283 36.9595 12.7644C36.6697 12.3004 36.1932 11.8935 35.5298 11.5436C34.8664 11.1938 33.9628 10.9048 32.8191 10.6766C31.9956 10.5093 31.3703 10.3381 30.9433 10.1632C30.5163 9.98826 30.2304 9.79051 30.0855 9.56994C29.9407 9.34937 29.8682 9.10218 29.8682 8.82837C29.8682 8.38723 30.1008 8.05258 30.5659 7.8244C31.031 7.59623 31.5991 7.48214 32.2701 7.48214C32.8496 7.48214 33.3605 7.55059 33.8027 7.6875C34.245 7.82441 34.6567 8.07539 35.038 8.44048C35.2667 8.65344 35.5488 8.79034 35.8843 8.85119C36.2198 8.91204 36.5096 8.8588 36.7536 8.69147C36.9976 8.50893 37.1272 8.28456 37.1425 8.01835C37.1577 7.75215 37.0586 7.49736 36.8451 7.25397C36.3876 6.69113 35.77 6.25 34.9922 5.93056C34.2145 5.61111 33.3223 5.45139 32.3158 5.45139C31.5381 5.45139 30.7908 5.57688 30.0741 5.82788C29.3573 6.07887 28.7702 6.45916 28.3127 6.96875C27.8552 7.47834 27.6265 8.12103 27.6265 8.89683C27.6265 9.77911 27.9734 10.5245 28.6673 11.1329C29.3612 11.7414 30.4782 12.1977 32.0185 12.502C33.208 12.7149 34.0276 12.9888 34.4775 13.3234C34.9274 13.6581 35.1447 14.0536 35.1295 14.5099C35.1142 14.9663 34.874 15.339 34.4089 15.628C33.9438 15.917 33.269 16.0615 32.3845 16.0615C31.683 16.0615 31.0463 15.936 30.4744 15.685C29.9025 15.434 29.487 15.164 29.2277 14.875C29.0142 14.6468 28.7588 14.5137 28.4614 14.4757C28.164 14.4377 27.8628 14.5403 27.5578 14.7837C27.2986 14.9815 27.1499 15.2363 27.1118 15.5481C27.0737 15.86 27.169 16.1376 27.3977 16.381C27.901 16.8829 28.6063 17.2975 29.5137 17.6245ZM40.9054 17.693C41.1265 17.9135 41.4048 18.0238 41.7403 18.0238C42.0911 18.0238 42.3732 17.9135 42.5867 17.693C42.8002 17.4724 42.907 17.1948 42.907 16.8601V6.70635C42.907 6.35648 42.8002 6.07507 42.5867 5.8621C42.3732 5.64914 42.0911 5.54266 41.7403 5.54266C41.4048 5.54266 41.1265 5.64914 40.9054 5.8621C40.6843 6.07507 40.5737 6.35648 40.5737 6.70635V16.8601C40.5737 17.1948 40.6843 17.4724 40.9054 17.693ZM40.6767 3.06696C40.974 3.36359 41.3286 3.5119 41.7403 3.5119C42.1521 3.5119 42.5067 3.36359 42.804 3.06696C43.1014 2.77034 43.2501 2.41667 43.2501 2.00595C43.2501 1.59524 43.1014 1.24157 42.804 0.94494C42.5067 0.648312 42.1521 0.5 41.7403 0.5C41.3286 0.5 40.974 0.648312 40.6767 0.94494C40.3793 1.24157 40.2306 1.59524 40.2306 2.00595C40.2306 2.41667 40.3793 2.77034 40.6767 3.06696ZM62.8425 17.7158C63.0636 17.9363 63.342 18.0466 63.6775 18.0466C64.0282 18.0466 64.3103 17.9363 64.5238 17.7158C64.7373 17.4952 64.8441 17.2176 64.8441 16.8829V10.3571C64.8441 9.30754 64.6573 8.41386 64.2837 7.67609C63.91 6.93832 63.3877 6.3793 62.7167 5.99901C62.0457 5.61872 61.2756 5.42857 60.4063 5.42857C59.4151 5.42857 58.5344 5.64153 57.7643 6.06746C57.2226 6.36703 56.7658 6.74749 56.3939 7.20885C56.0521 6.69771 55.6206 6.29443 55.0993 5.99901C54.4283 5.61872 53.6582 5.42857 52.789 5.42857C51.8892 5.42857 51.0886 5.64153 50.3871 6.06746C50.0933 6.24584 49.8263 6.45289 49.586 6.68863C49.578 6.3575 49.4714 6.0896 49.2662 5.88492C49.0527 5.67196 48.7706 5.56548 48.4198 5.56548C48.0843 5.56548 47.806 5.67196 47.5849 5.88492C47.3638 6.09788 47.2532 6.3793 47.2532 6.72917V16.8829C47.2532 17.2176 47.3638 17.4952 47.5849 17.7158C47.806 17.9363 48.0843 18.0466 48.4198 18.0466C48.7706 18.0466 49.0527 17.9363 49.2662 17.7158C49.4797 17.4952 49.5865 17.2176 49.5865 16.8829V10.4484C49.5865 9.59656 49.8457 8.89683 50.3642 8.34921C50.8827 7.80158 51.5385 7.52778 52.3315 7.52778C53.094 7.52778 53.7116 7.75975 54.1843 8.22371C54.6571 8.68767 54.8935 9.39881 54.8935 10.3571V16.8829C54.8935 17.2176 55.004 17.4952 55.2252 17.7158C55.4463 17.9363 55.7246 18.0466 56.0601 18.0466C56.4108 18.0466 56.693 17.9363 56.9065 17.7158C57.12 17.4952 57.2267 17.2176 57.2267 16.8829V10.4484C57.2267 9.59656 57.4821 8.89683 57.993 8.34921C58.5039 7.80158 59.1558 7.52778 59.9488 7.52778C60.7113 7.52778 61.329 7.75975 61.8017 8.22371C62.2745 8.68767 62.5108 9.39881 62.5108 10.3571V16.8829C62.5108 17.2176 62.6214 17.4952 62.8425 17.7158ZM15.3134 11.5683C15.3365 10.1475 15.8111 9.24032 16.4132 8.67485C17.049 8.07776 17.9343 7.76187 18.8881 7.73872C19.8468 7.71545 20.7909 7.9917 21.4824 8.47289C21.9128 8.7723 22.2298 9.13655 22.4143 9.55361L15.3134 11.5683ZM15.7097 13.7892C15.8299 14.0578 15.9716 14.2897 16.1267 14.4896C16.5976 15.0969 17.2567 15.4944 18.0223 15.7029C19.6236 16.139 21.4469 15.6897 22.3361 14.9227C22.8061 14.5174 23.5166 14.5688 23.923 15.0376C24.3294 15.5064 24.2778 16.215 23.8078 16.6204C22.2873 17.9319 19.6683 18.4776 17.4298 17.868C16.2755 17.5537 15.1654 16.9182 14.3469 15.8627C13.5251 14.8029 13.0625 13.4035 13.0625 11.6775C13.0625 9.66585 13.7397 8.10318 14.8709 7.04081C15.9837 5.99571 17.4351 5.52898 18.8334 5.49504C20.2269 5.46122 21.6505 5.85341 22.7697 6.63214C23.9028 7.42055 24.7597 8.63965 24.8439 10.2024C24.8772 10.8212 24.6071 11.2648 23.938 11.4546L15.7097 13.7892Z" fill="#FF8800"/>
</svg>
