<svg width="30" height="30" viewBox="0 0 30 30" fill="none" xmlns="http://www.w3.org/2000/svg">
<g clip-path="url(#clip0_4002_1924)">
<circle cx="15" cy="15" r="15" fill="#FF8800"/>
<path d="M7 15.127C7 14.7284 7 14.529 7.07881 14.3773C7.14522 14.2495 7.24947 14.1452 7.37732 14.0788C7.52903 14 7.72836 14 8.127 14H8.873C9.27164 14 9.47097 14 9.62268 14.0788C9.75053 14.1452 9.85478 14.2495 9.92119 14.3773C10 14.529 10 14.7284 10 15.127V17.873C10 18.2716 10 18.471 9.92119 18.6227C9.85478 18.7505 9.75053 18.8548 9.62268 18.9212C9.47097 19 9.27164 19 8.873 19H8.127C7.72836 19 7.52903 19 7.37732 18.9212C7.24947 18.8548 7.14522 18.7505 7.07881 18.6227C7 18.471 7 18.2716 7 17.873V15.127Z" fill="white"/>
<path d="M7 21.127C7 20.7284 7 20.529 7.07881 20.3773C7.14522 20.2495 7.24947 20.1452 7.37732 20.0788C7.52903 20 7.72836 20 8.127 20H8.873C9.27164 20 9.47097 20 9.62268 20.0788C9.75053 20.1452 9.85478 20.2495 9.92119 20.3773C10 20.529 10 20.7284 10 21.127V21.873C10 22.2716 10 22.471 9.92119 22.6227C9.85478 22.7505 9.75053 22.8548 9.62268 22.9212C9.47097 23 9.27164 23 8.873 23H8.127C7.72836 23 7.52903 23 7.37732 22.9212C7.24947 22.8548 7.14522 22.7505 7.07881 22.6227C7 22.471 7 22.2716 7 21.873V21.127Z" fill="white"/>
<path d="M11 12.127C11 11.7284 11 11.529 11.0788 11.3773C11.1452 11.2495 11.2495 11.1452 11.3773 11.0788C11.529 11 11.7284 11 12.127 11H12.873C13.2716 11 13.471 11 13.6227 11.0788C13.7505 11.1452 13.8548 11.2495 13.9212 11.3773C14 11.529 14 11.7284 14 12.127V17.873C14 18.2716 14 18.471 13.9212 18.6227C13.8548 18.7505 13.7505 18.8548 13.6227 18.9212C13.471 19 13.2716 19 12.873 19H12.127C11.7284 19 11.529 19 11.3773 18.9212C11.2495 18.8548 11.1452 18.7505 11.0788 18.6227C11 18.471 11 18.2716 11 17.873V12.127Z" fill="white"/>
<path d="M11 21.127C11 20.7284 11 20.529 11.0788 20.3773C11.1452 20.2495 11.2495 20.1452 11.3773 20.0788C11.529 20 11.7284 20 12.127 20H12.873C13.2716 20 13.471 20 13.6227 20.0788C13.7505 20.1452 13.8548 20.2495 13.9212 20.3773C14 20.529 14 20.7284 14 21.127V21.873C14 22.2716 14 22.471 13.9212 22.6227C13.8548 22.7505 13.7505 22.8548 13.6227 22.9212C13.471 23 13.2716 23 12.873 23H12.127C11.7284 23 11.529 23 11.3773 22.9212C11.2495 22.8548 11.1452 22.7505 11.0788 22.6227C11 22.471 11 22.2716 11 21.873V21.127Z" fill="white"/>
<path d="M15 9.127C15 8.72836 15 8.52903 15.0788 8.37732C15.1452 8.24947 15.2495 8.14522 15.3773 8.07881C15.529 8 15.7284 8 16.127 8H16.873C17.2716 8 17.471 8 17.6227 8.07881C17.7505 8.14522 17.8548 8.24947 17.9212 8.37732C18 8.52903 18 8.72836 18 9.127V17.873C18 18.2716 18 18.471 17.9212 18.6227C17.8548 18.7505 17.7505 18.8548 17.6227 18.9212C17.471 19 17.2716 19 16.873 19H16.127C15.7284 19 15.529 19 15.3773 18.9212C15.2495 18.8548 15.1452 18.7505 15.0788 18.6227C15 18.471 15 18.2716 15 17.873V9.127Z" fill="white"/>
<path d="M15 21.127C15 20.7284 15 20.529 15.0788 20.3773C15.1452 20.2495 15.2495 20.1452 15.3773 20.0788C15.529 20 15.7284 20 16.127 20H16.873C17.2716 20 17.471 20 17.6227 20.0788C17.7505 20.1452 17.8548 20.2495 17.9212 20.3773C18 20.529 18 20.7284 18 21.127V21.873C18 22.2716 18 22.471 17.9212 22.6227C17.8548 22.7505 17.7505 22.8548 17.6227 22.9212C17.471 23 17.2716 23 16.873 23H16.127C15.7284 23 15.529 23 15.3773 22.9212C15.2495 22.8548 15.1452 22.7505 15.0788 22.6227C15 22.471 15 22.2716 15 21.873V21.127Z" fill="white"/>
<path opacity="0.5" d="M19 7.127C19 6.72836 19 6.52903 19.0788 6.37732C19.1452 6.24947 19.2495 6.14522 19.3773 6.07881C19.529 6 19.7284 6 20.127 6H20.873C21.2716 6 21.471 6 21.6227 6.07881C21.7505 6.14522 21.8548 6.24947 21.9212 6.37732C22 6.52903 22 6.72836 22 7.127V17.873C22 18.2716 22 18.471 21.9212 18.6227C21.8548 18.7505 21.7505 18.8548 21.6227 18.9212C21.471 19 21.2716 19 20.873 19H20.127C19.7284 19 19.529 19 19.3773 18.9212C19.2495 18.8548 19.1452 18.7505 19.0788 18.6227C19 18.471 19 18.2716 19 17.873V7.127Z" fill="white"/>
<path d="M19 21.127C19 20.7284 19 20.529 19.0788 20.3773C19.1452 20.2495 19.2495 20.1452 19.3773 20.0788C19.529 20 19.7284 20 20.127 20H20.873C21.2716 20 21.471 20 21.6227 20.0788C21.7505 20.1452 21.8548 20.2495 21.9212 20.3773C22 20.529 22 20.7284 22 21.127V21.873C22 22.2716 22 22.471 21.9212 22.6227C21.8548 22.7505 21.7505 22.8548 21.6227 22.9212C21.471 23 21.2716 23 20.873 23H20.127C19.7284 23 19.529 23 19.3773 22.9212C19.2495 22.8548 19.1452 22.7505 19.0788 22.6227C19 22.471 19 22.2716 19 21.873V21.127Z" fill="white"/>
</g>
<defs>
<clipPath id="clip0_4002_1924">
<rect width="30" height="30" fill="white"/>
</clipPath>
</defs>
</svg>
